<svg version="1.1" id="Layer_1" xmlns="http://www.w3.org/2000/svg" xmlns:xlink="http://www.w3.org/1999/xlink" x="0px" y="0px"
	 width="100%" viewBox="0 0 290 106" enable-background="new 0 0 290 106" xml:space="preserve">
<path fill="#FBFBFB" opacity="1.000000" stroke="none" 
	d="
M291.000000,101.000000 
	C291.000000,102.996689 291.000000,104.993385 291.000000,106.992554 
	C194.333328,106.995041 97.666664,106.995041 1.000000,106.992836 
	C1.000000,105.326736 1.000000,103.662842 1.291236,101.454659 
	C1.771758,100.857834 1.961044,100.805290 2.605928,100.812622 
	C51.789894,100.872498 100.518265,100.872498 149.354797,100.872498 
	C149.354797,69.356621 149.354797,38.346527 149.354797,7.252106 
	C100.032730,7.252106 51.095020,7.252106 1.873084,7.165650 
	C1.392574,7.052797 1.196287,7.026398 1.000000,7.000000 
	C1.000000,5.003310 1.000000,3.006619 1.000000,1.007447 
	C97.666664,1.004964 194.333328,1.004964 291.000000,1.007158 
	C291.000000,2.673253 291.000000,4.337155 290.533417,6.547862 
	C262.745392,7.097804 235.423950,7.101705 208.102509,7.103765 
	C193.942001,7.104833 179.781403,7.129520 165.621078,7.077524 
	C163.025330,7.067993 160.792618,7.089172 162.195374,11.000000 
	C205.097504,11.000000 248.048752,11.000000 291.000000,11.000000 
	C291.000000,39.354229 291.000000,67.708458 290.532532,96.495529 
	C247.444016,96.928375 204.822983,96.928375 162.304916,96.928375 
	C160.569092,101.586693 163.677597,100.883995 166.065353,100.886429 
	C207.710236,100.928864 249.355118,100.963593 291.000000,101.000000 
M192.679672,48.842270 
	C193.108902,43.309631 194.126740,37.740208 193.783981,32.255821 
	C193.502045,27.744925 189.881271,24.595963 185.430817,24.226389 
	C178.892181,23.683407 172.275009,24.086441 165.652435,24.086441 
	C165.652435,44.695599 165.652435,65.080544 165.652435,85.719933 
	C171.636353,85.719933 177.395660,86.430458 182.863297,85.473885 
	C186.602020,84.819786 190.983292,82.653442 193.238327,79.739868 
	C198.591522,72.823326 195.894119,58.175831 188.992020,52.452641 
	C190.069214,51.434849 191.133728,50.429047 192.679672,48.842270 
M201.117249,40.501797 
	C201.117249,55.442066 201.117249,70.382339 201.117249,85.457626 
	C210.305405,85.457626 219.010117,85.457626 227.671204,85.457626 
	C227.671204,82.489685 227.671204,79.887009 227.671204,76.810928 
	C222.039566,76.810928 216.640884,76.810928 211.232498,76.810928 
	C211.232498,70.558548 211.232498,64.794594 211.232498,58.485497 
	C215.663223,58.485497 219.862625,58.485497 224.062347,58.485497 
	C224.062347,55.347870 224.062347,52.762337 224.062347,49.658306 
	C219.585846,49.658306 215.362579,49.658306 211.264053,49.658306 
	C211.264053,43.692657 211.264053,38.260422 211.264053,32.263027 
	C216.893646,32.263027 222.280670,32.263027 227.629028,32.263027 
	C227.629028,29.098242 227.629028,26.513439 227.629028,23.890949 
	C218.741623,23.890949 210.148712,23.890949 201.117188,23.890949 
	C201.117188,29.253603 201.117188,34.378429 201.117249,40.501797 
M233.708206,74.481689 
	C233.708206,78.101692 233.708206,81.721687 233.708206,85.554672 
	C242.446045,85.554672 250.688095,85.554672 259.139374,85.554672 
	C259.139374,82.600311 259.139374,79.896034 259.139374,76.709206 
	C253.791733,76.709206 248.719467,76.709206 243.238708,76.709206 
	C243.238708,58.825172 243.238708,41.422504 243.238708,23.903008 
	C239.893509,23.903008 236.994385,23.903008 233.708206,23.903008 
	C233.708206,40.594112 233.708206,57.041161 233.708206,74.481689 
M263.520233,29.484255 
	C263.520233,48.091110 263.520233,66.697968 263.520233,85.548325 
	C272.240936,85.548325 280.481232,85.548325 288.972046,85.548325 
	C288.972046,82.639542 288.972046,79.932236 288.972046,76.742310 
	C283.635406,76.742310 278.565765,76.742310 273.122925,76.742310 
	C273.122925,58.857998 273.122925,41.453129 273.122925,23.901024 
	C269.817078,23.901024 266.914429,23.901024 263.520050,23.901024 
	C263.520050,25.584030 263.520050,27.029753 263.520233,29.484255 
z"/>
<path fill="#0D0D0D" opacity="1.000000" stroke="none" 
	d="
M291.000000,10.600004 
	C248.048752,11.000000 205.097504,11.000000 162.195374,11.000000 
	C160.792618,7.089172 163.025330,7.067993 165.621078,7.077524 
	C179.781403,7.129520 193.942001,7.104833 208.102509,7.103765 
	C235.423950,7.101705 262.745392,7.097804 290.533417,7.047333 
	C291.000000,8.066669 291.000000,9.133339 291.000000,10.600004 
z"/>
<path fill="#0D0D0D" opacity="1.000000" stroke="none" 
	d="
M291.000000,100.600006 
	C249.355118,100.963593 207.710236,100.928864 166.065353,100.886429 
	C163.677597,100.883995 160.569092,101.586693 162.304916,96.928375 
	C204.822983,96.928375 247.444016,96.928375 290.532532,96.964188 
	C291.000000,98.066673 291.000000,99.133339 291.000000,100.600006 
z"/>
<path fill="#727272" opacity="1.000000" stroke="none" 
	d="
M1.000000,7.468657 
	C1.196287,7.026398 1.392574,7.052797 1.836040,7.616988 
	C2.105589,39.020767 2.127960,69.886749 2.150330,100.752739 
	C1.961044,100.805290 1.771758,100.857834 1.291236,100.955185 
	C1.000000,69.979103 1.000000,38.958210 1.000000,7.468657 
z"/>
<path fill="#060606" opacity="1.000000" stroke="none" 
	d="
M2.605928,100.812622 
	C2.127960,69.886749 2.105589,39.020767 2.120263,7.703443 
	C51.095020,7.252106 100.032730,7.252106 149.354797,7.252106 
	C149.354797,38.346527 149.354797,69.356621 149.354797,100.872498 
	C100.518265,100.872498 51.789894,100.872498 2.605928,100.812622 
M40.076981,73.013161 
	C41.840176,82.897133 46.456383,86.758118 55.988674,86.321640 
	C64.352989,85.938644 69.341614,81.210678 69.630562,72.228836 
	C70.005463,60.575130 69.965637,48.893227 69.634705,37.236794 
	C69.407104,29.219994 65.267120,24.410727 58.650639,23.134571 
	C47.693722,21.021254 40.174152,26.956884 40.031712,38.111485 
	C39.887020,49.442017 40.022350,60.776123 40.076981,73.013161 
M103.999397,47.476421 
	C108.977196,59.664299 110.068596,72.442917 109.017242,85.609764 
	C112.690269,85.609764 115.610832,85.609764 119.461830,85.609764 
	C115.774925,63.610176 126.475151,44.499706 130.981827,24.143621 
	C122.135109,22.834044 122.148689,22.837564 120.047806,30.940584 
	C118.351616,37.482742 116.617470,44.015060 114.613098,51.644394 
	C112.617142,44.237446 110.919357,38.003609 109.259132,31.759781 
	C106.986298,23.212023 106.998276,23.204561 98.149460,23.755224 
	C97.879875,23.772001 97.628708,24.084888 97.158012,24.401707 
	C99.371796,31.786356 101.605164,39.236320 103.999397,47.476421 
M75.802773,78.424171 
	C75.802773,80.718002 75.802773,83.011833 75.802773,85.557495 
	C84.495667,85.557495 92.735558,85.557495 101.265488,85.557495 
	C101.265488,82.680641 101.265488,79.964256 101.265488,76.779663 
	C96.007492,76.779663 90.928825,76.779663 85.405701,76.779663 
	C85.405701,58.911095 85.405701,41.500111 85.405701,23.873383 
	C82.033432,23.873383 79.132858,23.873383 75.802452,23.873383 
	C75.802452,41.877155 75.802452,59.660828 75.802773,78.424171 
M24.177570,73.396194 
	C21.682152,75.037239 19.186733,76.678291 15.966787,78.795807 
	C15.966787,80.110092 15.966787,82.823952 15.966787,85.490471 
	C28.715368,87.000938 34.071980,82.441666 34.204185,70.048729 
	C34.312321,59.911751 34.225807,49.772701 34.225655,39.634567 
	C34.225578,34.381382 34.225639,29.128199 34.225639,23.975163 
	C30.698923,23.975163 27.797441,23.975163 24.351982,23.975163 
	C24.351982,40.385368 24.351982,56.475636 24.177570,73.396194 
M136.801697,76.412949 
	C133.921661,76.412949 131.041641,76.412949 128.339325,76.412949 
	C128.339325,79.806831 128.339325,82.698143 128.339325,85.627579 
	C131.427383,85.627579 134.173325,85.627579 137.280365,85.627579 
	C137.280365,82.664337 137.280365,79.900177 136.801697,76.412949 
z"/>
<path fill="#0A0A0A" opacity="1.000000" stroke="none" 
	d="
M192.438965,49.132759 
	C191.133728,50.429047 190.069214,51.434849 188.992020,52.452641 
	C195.894119,58.175831 198.591522,72.823326 193.238327,79.739868 
	C190.983292,82.653442 186.602020,84.819786 182.863297,85.473885 
	C177.395660,86.430458 171.636353,85.719933 165.652435,85.719933 
	C165.652435,65.080544 165.652435,44.695599 165.652435,24.086441 
	C172.275009,24.086441 178.892181,23.683407 185.430817,24.226389 
	C189.881271,24.595963 193.502045,27.744925 193.783981,32.255821 
	C194.126740,37.740208 193.108902,43.309631 192.438965,49.132759 
M176.668854,76.885078 
	C179.491959,76.037247 184.520615,75.567757 184.742584,74.273727 
	C185.548416,69.576096 185.463837,64.393425 184.146576,59.848289 
	C183.699371,58.305225 178.609268,58.107754 174.744522,57.050133 
	C175.142670,64.576752 175.463425,70.640182 176.668854,76.885078 
M178.308411,32.414288 
	C177.239441,33.244785 175.307983,34.016323 175.246506,34.915691 
	C174.932556,39.507980 175.101471,44.133278 175.101471,48.705181 
	C182.368271,49.123024 184.300873,47.986488 184.872833,43.318157 
	C185.771072,35.986927 184.437088,33.453312 178.308411,32.414288 
z"/>
<path fill="#070707" opacity="1.000000" stroke="none" 
	d="
M201.117218,40.002525 
	C201.117188,34.378429 201.117188,29.253603 201.117188,23.890949 
	C210.148712,23.890949 218.741623,23.890949 227.629028,23.890949 
	C227.629028,26.513439 227.629028,29.098242 227.629028,32.263027 
	C222.280670,32.263027 216.893646,32.263027 211.264053,32.263027 
	C211.264053,38.260422 211.264053,43.692657 211.264053,49.658306 
	C215.362579,49.658306 219.585846,49.658306 224.062347,49.658306 
	C224.062347,52.762337 224.062347,55.347870 224.062347,58.485497 
	C219.862625,58.485497 215.663223,58.485497 211.232498,58.485497 
	C211.232498,64.794594 211.232498,70.558548 211.232498,76.810928 
	C216.640884,76.810928 222.039566,76.810928 227.671204,76.810928 
	C227.671204,79.887009 227.671204,82.489685 227.671204,85.457626 
	C219.010117,85.457626 210.305405,85.457626 201.117249,85.457626 
	C201.117249,70.382339 201.117249,55.442066 201.117218,40.002525 
z"/>
<path fill="#030303" opacity="1.000000" stroke="none" 
	d="
M233.708206,73.984955 
	C233.708206,57.041161 233.708206,40.594112 233.708206,23.903008 
	C236.994385,23.903008 239.893509,23.903008 243.238708,23.903008 
	C243.238708,41.422504 243.238708,58.825172 243.238708,76.709206 
	C248.719467,76.709206 253.791733,76.709206 259.139374,76.709206 
	C259.139374,79.896034 259.139374,82.600311 259.139374,85.554672 
	C250.688095,85.554672 242.446045,85.554672 233.708206,85.554672 
	C233.708206,81.721687 233.708206,78.101692 233.708206,73.984955 
z"/>
<path fill="#030303" opacity="1.000000" stroke="none" 
	d="
M263.520142,28.979864 
	C263.520050,27.029753 263.520050,25.584030 263.520050,23.901024 
	C266.914429,23.901024 269.817078,23.901024 273.122925,23.901024 
	C273.122925,41.453129 273.122925,58.857998 273.122925,76.742310 
	C278.565765,76.742310 283.635406,76.742310 288.972046,76.742310 
	C288.972046,79.932236 288.972046,82.639542 288.972046,85.548325 
	C280.481232,85.548325 272.240936,85.548325 263.520233,85.548325 
	C263.520233,66.697968 263.520233,48.091110 263.520142,28.979864 
z"/>
<path fill="#F7F7F7" opacity="1.000000" stroke="none" 
	d="
M40.056015,72.560913 
	C40.022350,60.776123 39.887020,49.442017 40.031712,38.111485 
	C40.174152,26.956884 47.693722,21.021254 58.650639,23.134571 
	C65.267120,24.410727 69.407104,29.219994 69.634705,37.236794 
	C69.965637,48.893227 70.005463,60.575130 69.630562,72.228836 
	C69.341614,81.210678 64.352989,85.938644 55.988674,86.321640 
	C46.456383,86.758118 41.840176,82.897133 40.056015,72.560913 
M50.817524,75.510078 
	C55.283955,78.633240 59.544399,77.715294 59.689461,73.138092 
	C60.078552,60.860985 59.996567,48.557854 59.600941,36.281193 
	C59.552177,34.768040 56.460819,32.214039 54.785103,32.218643 
	C53.171021,32.223076 50.200150,34.891335 50.169434,36.435860 
	C49.915497,49.203049 50.206669,61.981075 50.817524,75.510078 
z"/>
<path fill="#F7F7F7" opacity="1.000000" stroke="none" 
	d="
M103.918961,47.081352 
	C101.605164,39.236320 99.371796,31.786356 97.158012,24.401707 
	C97.628708,24.084888 97.879875,23.772001 98.149460,23.755224 
	C106.998276,23.204561 106.986298,23.212023 109.259132,31.759781 
	C110.919357,38.003609 112.617142,44.237446 114.613098,51.644394 
	C116.617470,44.015060 118.351616,37.482742 120.047806,30.940584 
	C122.148689,22.837564 122.135109,22.834044 130.981827,24.143621 
	C126.475151,44.499706 115.774925,63.610176 119.461830,85.609764 
	C115.610832,85.609764 112.690269,85.609764 109.017242,85.609764 
	C110.068596,72.442917 108.977196,59.664299 103.918961,47.081352 
z"/>
<path fill="#FBFBFB" opacity="1.000000" stroke="none" 
	d="
M75.802612,77.934334 
	C75.802452,59.660828 75.802452,41.877155 75.802452,23.873383 
	C79.132858,23.873383 82.033432,23.873383 85.405701,23.873383 
	C85.405701,41.500111 85.405701,58.911095 85.405701,76.779663 
	C90.928825,76.779663 96.007492,76.779663 101.265488,76.779663 
	C101.265488,79.964256 101.265488,82.680641 101.265488,85.557495 
	C92.735558,85.557495 84.495667,85.557495 75.802773,85.557495 
	C75.802773,83.011833 75.802773,80.718002 75.802612,77.934334 
z"/>
<path fill="#FDFDFD" opacity="1.000000" stroke="none" 
	d="
M24.264776,72.981049 
	C24.351982,56.475636 24.351982,40.385368 24.351982,23.975163 
	C27.797441,23.975163 30.698923,23.975163 34.225639,23.975163 
	C34.225639,29.128199 34.225578,34.381382 34.225655,39.634567 
	C34.225807,49.772701 34.312321,59.911751 34.204185,70.048729 
	C34.071980,82.441666 28.715368,87.000938 15.966787,85.490471 
	C15.966787,82.823952 15.966787,80.110092 15.966787,78.795807 
	C19.186733,76.678291 21.682152,75.037239 24.264776,72.981049 
z"/>
<path fill="#EFEFEF" opacity="1.000000" stroke="none" 
	d="
M137.041031,76.774483 
	C137.280365,79.900177 137.280365,82.664337 137.280365,85.627579 
	C134.173325,85.627579 131.427383,85.627579 128.339325,85.627579 
	C128.339325,82.698143 128.339325,79.806831 128.339325,76.412949 
	C131.041641,76.412949 133.921661,76.412949 137.041031,76.774483 
z"/>
<path fill="#F4F4F4" opacity="1.000000" stroke="none" 
	d="
M176.226501,76.794342 
	C175.463425,70.640182 175.142670,64.576752 174.744522,57.050133 
	C178.609268,58.107754 183.699371,58.305225 184.146576,59.848289 
	C185.463837,64.393425 185.548416,69.576096 184.742584,74.273727 
	C184.520615,75.567757 179.491959,76.037247 176.226501,76.794342 
z"/>
<path fill="#F0F0F0" opacity="1.000000" stroke="none" 
	d="
M178.721359,32.416756 
	C184.437088,33.453312 185.771072,35.986927 184.872833,43.318157 
	C184.300873,47.986488 182.368271,49.123024 175.101471,48.705181 
	C175.101471,44.133278 174.932556,39.507980 175.246506,34.915691 
	C175.307983,34.016323 177.239441,33.244785 178.721359,32.416756 
z"/>
<path fill="#040404" opacity="1.000000" stroke="none" 
	d="
M50.575165,75.132950 
	C50.206669,61.981075 49.915497,49.203049 50.169434,36.435860 
	C50.200150,34.891335 53.171021,32.223076 54.785103,32.218643 
	C56.460819,32.214039 59.552177,34.768040 59.600941,36.281193 
	C59.996567,48.557854 60.078552,60.860985 59.689461,73.138092 
	C59.544399,77.715294 55.283955,78.633240 50.575165,75.132950 
z"/>
</svg>